<?xml version="1.0" encoding="UTF-8" standalone="no"?>
<!-- Generator: Adobe Illustrator 27.6.1, SVG Export Plug-In . SVG Version: 6.00 Build 0)  -->

<svg
   version="1.1"
   id="svg2229"
   inkscape:output_extension="org.inkscape.output.svg.inkscape"
   inkscape:version="1.3.2 (091e20e, 2023-11-25, custom)"
   sodipodi:docname="Law-of-haversines.svg"
   sodipodi:version="0.32"
   x="0px"
   y="0px"
   width="231px"
   height="231px"
   viewBox="0 0 231 231"
   style="enable-background:new 0 0 231 231;"
   xml:space="preserve"
   xmlns:inkscape="http://www.inkscape.org/namespaces/inkscape"
   xmlns:sodipodi="http://sodipodi.sourceforge.net/DTD/sodipodi-0.dtd"
   xmlns="http://www.w3.org/2000/svg"
   xmlns:svg="http://www.w3.org/2000/svg">
<style
   type="text/css"
   id="style1">
	.st0{fill:none;stroke:#000000;stroke-width:0.9966;}
	.st1{fill:none;stroke:#000000;stroke-width:0.9957;stroke-dasharray:7.9656,7.9656;}
	.st2{enable-background:new    ;}
	.st3{fill:#00FF00;}
	.st4{fill:#00FFFF;}
	.st5{fill:#0000FF;}
	.st6{fill:#FFD700;}
	.st7{fill:#FF0000;}
	.st8{fill:none;stroke:#FF00FF;}
	.st9{fill:none;stroke:#0000FF;}
	.st10{fill:none;stroke:#FF0000;}
	.st11{fill:none;stroke:#00FF00;}
	.st12{fill:#FF00FF;}
</style>
<sodipodi:namedview
   bordercolor="#666666"
   borderopacity="1.0"
   gridtolerance="10.0"
   guidetolerance="10.0"
   id="base"
   inkscape:current-layer="svg2229"
   inkscape:cx="173.61111"
   inkscape:cy="114.12037"
   inkscape:pageopacity="0.0"
   inkscape:pageshadow="2"
   inkscape:window-height="729"
   inkscape:window-width="1280"
   inkscape:window-x="0"
   inkscape:window-y="0"
   inkscape:zoom="2.16"
   objecttolerance="10.0"
   pagecolor="#ffffff"
   showgrid="false"
   inkscape:showpageshadow="2"
   inkscape:pagecheckerboard="0"
   inkscape:deskcolor="#d1d1d1"
   inkscape:window-maximized="0">
	</sodipodi:namedview>
<defs
   id="defs1">
	
		<inkscape:perspective
   id="perspective2492"
   inkscape:persp3d-origin="115.5 : 77 : 1"
   inkscape:vp_x="0 : 115.5 : 1"
   inkscape:vp_y="0 : 1000 : 0"
   inkscape:vp_z="231 : 115.5 : 1"
   sodipodi:type="inkscape:persp3d">
		</inkscape:perspective>
</defs>
<path
   id="path2238"
   class="st0"
   d="M228.5,116c0,62.7-50.8,113.5-113.5,113.5S1.5,178.7,1.5,116S52.3,2.5,115,2.5  S228.5,53.3,228.5,116L228.5,116z"
   style="stroke:#e6e6e6" />
<path
   id="path4187"
   class="st1"
   d="M1.5,115.2c75.7,45.8,151.3,45.8,227,0"
   style="stroke:#cccccc" />
<g
   class="st2"
   id="g1"
   style="fill:#cccccc">
	<path
   d="M98.9,61.6v7.1c0,0.7,0.1,1.1,0.2,1.3s0.4,0.3,0.8,0.3v0.4h-3.7v-1.2c-0.4,0.5-0.9,0.9-1.3,1.1S93.9,71,93.4,71   c-0.5,0-1-0.2-1.4-0.5s-0.7-0.7-0.8-1.1S91,68.3,91,67.2v-3.6c0-0.7-0.1-1.1-0.2-1.3S90.4,62,90,62v-0.4h3.7v6.2   c0,0.7,0,1.1,0.1,1.3s0.2,0.3,0.3,0.4s0.3,0.1,0.5,0.1c0.2,0,0.4-0.1,0.6-0.2c0.3-0.2,0.6-0.5,0.9-1v-4.9c0-0.7-0.1-1.1-0.2-1.3   S95.6,62,95.2,62v-0.4H98.9z"
   id="path1"
   inkscape:label="path1"
   style="fill:#cccccc" />
</g>
<g
   class="st2"
   id="g2">
	<path
   d="M204.6,66l-2.5-6.7l-2.5,6.7h-0.5l-2.4-6.6c-0.4-1-0.7-1.7-0.9-2c-0.2-0.2-0.4-0.4-0.7-0.4v-0.4h4.6V57   c-0.3,0-0.5,0-0.6,0.1s-0.2,0.2-0.2,0.3c0,0.1,0.1,0.4,0.3,1l1.3,3.6l1.3-3.6l-0.1-0.2c-0.2-0.5-0.4-0.8-0.5-0.9s-0.4-0.2-0.7-0.3   v-0.4h4.7V57c-0.4,0-0.6,0.1-0.7,0.2s-0.1,0.2-0.1,0.3c0,0.1,0.1,0.5,0.3,0.9l1.3,3.6l1.2-3.3c0.2-0.5,0.3-0.8,0.3-1   c0-0.3-0.1-0.4-0.2-0.6s-0.4-0.2-0.7-0.2v-0.4h2.7V57c-0.3,0-0.5,0.1-0.7,0.3s-0.4,0.7-0.7,1.5l-2.6,7.3H204.6z"
   id="path2"
   style="stroke:none;fill:#cccccc" />
</g>
<g
   class="st2"
   id="g3"
   style="fill:#cccccc">
	<path
   d="M149.6,136l-3.1-7.1c-0.4-0.9-0.7-1.4-0.9-1.6c-0.1-0.2-0.4-0.3-0.7-0.3v-0.4h4.9v0.4c-0.3,0-0.5,0.1-0.6,0.2   c-0.2,0.1-0.2,0.3-0.2,0.5c0,0.2,0.1,0.7,0.4,1.4l1.5,3.4l1.2-3c0.3-0.8,0.5-1.4,0.5-1.8c0-0.2-0.1-0.4-0.2-0.5s-0.4-0.2-0.8-0.2   v-0.4h3v0.4c-0.3,0-0.5,0.1-0.7,0.3c-0.2,0.2-0.5,0.7-0.8,1.6l-3,7.2H149.6z"
   id="path3"
   style="stroke:none;fill:#cccccc" />
</g>
<g
   class="st2"
   id="g4">
	<path
   class="st3"
   d="M123.9,96.9l-1.9,6.6l-0.2,0.9c0,0.1,0,0.2,0,0.2c0,0.1,0,0.2,0.1,0.3c0.1,0.1,0.1,0.1,0.2,0.1   c0.1,0,0.2-0.1,0.3-0.2c0.3-0.2,0.6-0.6,1-1.2l0.3,0.2c-0.4,0.7-0.9,1.2-1.4,1.5c-0.5,0.4-0.9,0.5-1.3,0.5c-0.3,0-0.5-0.1-0.6-0.2   c-0.1-0.1-0.2-0.3-0.2-0.6c0-0.3,0.1-0.7,0.2-1.3l0.2-0.7c-0.9,1.1-1.6,1.9-2.4,2.3c-0.5,0.3-1,0.5-1.5,0.5c-0.5,0-0.9-0.2-1.2-0.6   s-0.5-0.9-0.5-1.6c0-1,0.3-2.1,0.9-3.3c0.6-1.1,1.4-2.1,2.4-2.8c0.7-0.5,1.5-0.8,2.1-0.8c0.4,0,0.7,0.1,1,0.3s0.5,0.6,0.6,1   l0.4-1.1L123.9,96.9z M120.4,97.4c-0.4,0-0.9,0.2-1.3,0.6c-0.7,0.6-1.3,1.4-1.8,2.5s-0.8,2.1-0.8,2.9c0,0.4,0.1,0.8,0.3,1   c0.2,0.3,0.5,0.4,0.8,0.4c0.7,0,1.5-0.5,2.3-1.6c1.1-1.4,1.7-2.8,1.7-4.3c0-0.6-0.1-1-0.3-1.2S120.8,97.4,120.4,97.4z"
   id="path4" />
</g>
<g
   class="st2"
   id="g5">
	<path
   class="st4"
   d="M182.3,57.2l-1,11c-0.1,0.5-0.1,0.9-0.1,1c0,0.3,0,0.5,0.1,0.6c0.1,0.2,0.3,0.3,0.5,0.4   c0.2,0.1,0.6,0.1,1.1,0.1l-0.1,0.4h-5.2l0.1-0.4h0.2c0.4,0,0.8-0.1,1-0.3c0.2-0.1,0.3-0.3,0.4-0.6c0.1-0.2,0.1-0.7,0.2-1.4l0.2-1.7   H176l-1.3,1.8c-0.3,0.4-0.5,0.7-0.6,0.9s-0.1,0.3-0.1,0.5c0,0.2,0.1,0.4,0.3,0.5c0.2,0.1,0.4,0.2,0.8,0.2l-0.1,0.4H171l0.1-0.4   c0.5,0,0.9-0.2,1.3-0.5c0.4-0.3,0.9-0.9,1.6-1.9l7.9-10.8H182.3z M180.4,60.4l-3.8,5.2h3.3L180.4,60.4z"
   id="path5" />
</g>
<g
   class="st2"
   id="g6">
	<path
   class="st5"
   d="M150.2,31.9l-1.9,6.7c0.6-0.7,1.2-1.1,1.6-1.3c0.5-0.2,1-0.4,1.5-0.4c0.7,0,1.3,0.2,1.8,0.7   c0.5,0.5,0.7,1.1,0.7,1.9c0,1-0.3,2.1-0.9,3.1c-0.6,1-1.4,1.8-2.3,2.4c-0.9,0.6-1.8,0.9-2.7,0.9c-1,0-2-0.4-3-1.1l3-10.2   c0.2-0.8,0.3-1.2,0.3-1.4c0-0.2-0.1-0.3-0.2-0.4c-0.1-0.1-0.4-0.2-0.7-0.2c-0.1,0-0.3,0-0.6,0.1v-0.4L150.2,31.9z M146.5,45   c0.7,0.4,1.2,0.5,1.7,0.5c0.6,0,1.2-0.2,1.8-0.6s1.1-1.1,1.6-2.1c0.5-1,0.7-2,0.7-3c0-0.6-0.1-1.1-0.4-1.4c-0.3-0.3-0.6-0.5-1-0.5   c-0.6,0-1.2,0.2-1.8,0.7c-0.6,0.5-1,1.2-1.2,2L146.5,45z"
   id="path6" />
</g>
<g
   class="st2"
   id="g7">
	<path
   class="st6"
   d="M150.5,95.4l0.1-0.4h4.7c0.8,0,1.5,0.1,2.1,0.4s1.1,0.6,1.4,1s0.5,0.9,0.5,1.4c0,0.8-0.3,1.5-0.8,2.1   s-1.4,1.1-2.7,1.4c0.8,0.3,1.4,0.7,1.8,1.2s0.6,1,0.6,1.6c0,0.7-0.2,1.3-0.5,1.9s-0.8,1.1-1.3,1.4s-1.2,0.6-1.9,0.7   c-0.5,0.1-1.4,0.2-2.5,0.2H147l0.1-0.4c0.5,0,0.9-0.1,1-0.1c0.3-0.1,0.4-0.3,0.6-0.4c0.2-0.2,0.4-0.8,0.6-1.7l2.4-8   c0.2-0.7,0.3-1.2,0.3-1.4c0-0.2-0.1-0.4-0.3-0.6s-0.5-0.2-1-0.2C150.7,95.4,150.6,95.4,150.5,95.4z M150.5,107.4   c0.7,0.1,1.3,0.1,1.7,0.1c1,0,1.9-0.3,2.7-0.9s1.2-1.4,1.2-2.5c0-0.8-0.2-1.4-0.7-1.9s-1.3-0.7-2.3-0.7c-0.2,0-0.5,0-0.8,0   L150.5,107.4z M152.4,100.9c0.4,0,0.7,0,0.9,0c1.4,0,2.4-0.3,3-0.9s1-1.3,1-2.2c0-0.7-0.2-1.2-0.6-1.6s-1-0.6-1.9-0.6   c-0.2,0-0.5,0-0.9,0.1L152.4,100.9z"
   id="path7" />
</g>
<g
   class="st2"
   id="g8">
	<path
   class="st7"
   d="M187.2,98.6c-0.7,0.8-1.4,1.4-2.1,1.8s-1.4,0.6-2.2,0.6c-0.9,0-1.6-0.3-2.2-0.8S180,99,180,98.1   c0-1,0.3-2,0.8-2.9s1.3-1.7,2.2-2.3s1.9-0.9,2.8-0.9c0.7,0,1.2,0.1,1.6,0.4s0.5,0.7,0.5,1.1c0,0.4-0.1,0.7-0.4,1   c-0.2,0.2-0.4,0.3-0.7,0.3c-0.2,0-0.4-0.1-0.5-0.2s-0.2-0.3-0.2-0.5c0-0.1,0-0.2,0.1-0.3s0.1-0.2,0.3-0.4s0.2-0.3,0.3-0.3   s0-0.1,0-0.2c0-0.1-0.1-0.3-0.2-0.3c-0.2-0.1-0.5-0.2-0.8-0.2c-0.6,0-1.3,0.2-1.9,0.7s-1.2,1.1-1.6,1.9c-0.5,1-0.8,2-0.8,3   c0,0.7,0.2,1.2,0.6,1.6s0.9,0.6,1.5,0.6c0.5,0,1-0.1,1.5-0.4s1-0.7,1.7-1.4L187.2,98.6z"
   id="path8" />
</g>
<path
   id="path13919"
   class="st8"
   d="M117.4,60.7c1.9,3.2,1.4,10.5-1.7,12.8" />
<path
   id="path8099"
   class="st9"
   d="M105.5,65.5c39-17.6,63.4-14.7,88-12" />
<path
   id="path8101"
   class="st10"
   d="M193.5,53.5c-5.8,22.4-19.8,44.4-43,66" />
<path
   id="path8103"
   class="st11"
   d="M150.5,119.5c-15.2-32.1-31.6-43.4-45-54" />
<g
   class="st2"
   id="g9">
	<path
   class="st12"
   d="M137.7,62.2l-1,4.3h-0.4l0-1.1c0-0.4-0.1-0.7-0.2-1s-0.3-0.6-0.5-0.8s-0.5-0.4-0.9-0.5   c-0.4-0.1-0.8-0.2-1.2-0.2c-1.2,0-2.2,0.3-3.1,1c-1.1,0.8-2,2-2.6,3.4c-0.5,1.2-0.8,2.5-0.8,3.7c0,1.3,0.4,2.3,1.1,3.1   c0.7,0.8,1.7,1.1,2.9,1.1c0.9,0,1.7-0.2,2.4-0.6c0.7-0.4,1.4-1,2-1.9h0.5c-0.7,1.1-1.5,2-2.4,2.5c-0.9,0.5-1.9,0.8-3.1,0.8   c-1.1,0-2-0.2-2.9-0.7c-0.8-0.5-1.5-1.1-1.9-1.9c-0.4-0.8-0.7-1.7-0.7-2.6c0-1.4,0.4-2.9,1.2-4.2c0.8-1.4,1.8-2.4,3.2-3.2   c1.4-0.8,2.7-1.2,4.1-1.2c0.6,0,1.4,0.2,2.2,0.5c0.4,0.1,0.6,0.2,0.8,0.2s0.3,0,0.4-0.1s0.3-0.3,0.6-0.6H137.7z"
   id="path9" />
</g>
</svg>
